<?xml version="1.0" encoding="utf-8"?>
<!-- Uploaded to: SVG Repo, www.svgrepo.com, Generator: SVG Repo Mixer Tools -->
<svg fill="#000000" width="800px" height="800px" viewBox="0 0 32 32" version="1.1" xmlns="http://www.w3.org/2000/svg">
<title>v</title>
<path d="M27.549 4.631c-0.054-0.083-0.147-0.138-0.252-0.138-0 0-0 0-0 0h-1.025c-0.12 0-0.224 0.071-0.273 0.173l-0.001 0.002-9.518 20.811-9.486-20.81c-0.049-0.105-0.153-0.176-0.273-0.176-0 0-0 0-0 0h-0.992c-0.166 0-0.3 0.134-0.3 0.3 0 0.045 0.010 0.088 0.028 0.127l-0.001-0.002 10.24 22.4c0.048 0.105 0.152 0.176 0.272 0.176h1.088c0.12 0 0.224-0.071 0.272-0.174l0.001-0.002 10.241-22.4c0.016-0.036 0.026-0.079 0.026-0.123 0-0.061-0.018-0.117-0.048-0.165l0.001 0.001z"></path>
</svg>